<?xml version="1.0" encoding="UTF-8"?>
<svg width="48px" height="48px" viewBox="0 0 48 48" version="1.1" xmlns="http://www.w3.org/2000/svg" xmlns:xlink="http://www.w3.org/1999/xlink">
    <!-- Generator: Sketch 57.1 (83088) - https://sketch.com -->
    <title>earth-with-continents</title>
    <desc>Created with Sketch.</desc>
    <g id="Page-1" stroke="none" stroke-width="1" fill="none" fill-rule="evenodd">
        <g id="Mask" transform="translate(-403.000000, -784.000000)" fill="#9E9E9E" fill-rule="nonzero" stroke="#979797">
            <g id="earth-with-continents" transform="translate(404.000000, 785.000000)">
                <path d="M43.798,14.812 L43.193,14.148 L43.078,13.081 L42.459,13.419 L42.125,14.726 L41.23,13.773 L41.193,12.873 L40.33,12.129 L40.011,11.813 L39.008,11.813 L39.326,12.707 L40.531,13.379 L40.74,13.602 L40.48,13.733 L40.49,14.44 L39.902,14.685 L39.402,14.575 L39.088,14.13 L39.902,14.175 L40.123,13.878 L38.316,12.659 L38.178,12.138 L37.443,12.802 L36.699,12.649 L35.566,14.123 L35.342,14.7 L34.616,14.766 L33.544,14.772 L32.903,14.473 L32.715,13.199 L32.944,12.593 L34.036,12.354 L35.225,12.593 L35.371,11.934 L34.864,11.815 L35.039,10.79 L36.235,10.602 L37.073,9.419 L37.936,9.273 L38.717,9.389 L39.004,9.389 L38.847,8.278 L37.9,8.661 L37.566,7.831 L37.015,7.752 L36.911,7.182 L37.36,6.693 L38.427,6.275 L38.701,5.784 C35.669,3.111 31.931,1.221 27.81,0.424 C27.716,0.407 27.624,0.39 27.531,0.374 C27.105,0.297 26.673,0.245 26.238,0.192 C25.312,0.079 24.375,0 23.417,0 C18.337,0 13.637,1.649 9.814,4.434 L10.011,4.433 L10.981,4.425 L11.502,4.713 L12.482,4.924 L12.558,5.31 L14.118,5.367 L13.906,4.868 L12.521,4.829 L12.847,4.521 L12.733,4.156 L11.482,4.156 L12.847,3.135 L14.156,3.135 L14.771,3.983 L15.792,4.04 L16.407,3.443 L16.869,3.674 L16.022,4.501 C16.022,4.501 14.849,4.521 14.906,4.521 C14.965,4.521 15.004,5.329 15.004,5.329 L16.426,5.29 L16.58,4.906 L17.561,4.847 L17.676,4.272 L17.1,4.174 L17.292,3.654 L17.733,3.519 L19.272,3.595 L18.424,4.366 L18.561,4.962 L19.446,5.097 L19.388,4.021 L20.235,3.578 L21.736,3.404 L23.911,4.367 L23.911,5.195 L24.602,5.367 L24.255,6.021 L23.276,6.021 L22.984,6.771 L20.74,6.243 L22.504,5.304 L21.832,4.733 L20.312,4.925 L20.177,5.063 L20.172,5.061 L20.152,5.09 L19.714,5.544 L18.991,5.606 L19.049,5.967 L19.302,6.071 L19.292,6.19 L18.703,6.274 L18.66,6.616 L18.097,6.645 L17.995,5.967 L16.984,6.274 L14.921,7.483 L15.151,8.333 L15.727,8.709 L16.882,8.868 L16.882,10.181 L17.414,10.094 L17.906,9.07 L19.134,8.681 L19.134,7.107 L19.817,6.592 L21.467,6.982 L21.35,8.021 L21.793,8.021 L23.005,7.425 L23.064,8.79 L23.948,9.329 L23.911,10.138 L23.064,10.426 L23.122,10.694 L24.141,11.159 L24.122,11.716 L23.825,11.741 C23.825,11.732 23.823,11.725 23.823,11.725 L22.535,11.329 L22.48,10.915 L22.48,10.915 L22.856,10.657 L22.856,10.281 L22.452,10.18 L22.352,10.527 L21.641,10.636 L21.571,10.612 L21.571,10.648 L21.326,10.685 L21.126,10.281 L20.894,10.18 L20.389,10.18 L20.16,10.368 L20.16,10.786 L20.592,10.931 L21.02,10.99 L20.924,11.033 L20.533,11.464 L20.363,11.248 L19.986,11.149 L18.961,12.114 L19.096,12.224 L17.581,13.061 L16.156,14.543 L16.059,15.202 L14.632,16.14 L13.926,16.852 L14.004,18.276 L13.023,17.818 L13.03,16.986 L10.3,16.987 L8.885,17.703 L8.272,18.835 L8.028,19.732 L8.426,20.603 L9.539,20.739 L11.31,19.554 L11.464,20.141 L10.924,21.162 L12.273,21.391 L12.408,23.472 L12.578,23.501 L12.594,23.503 L14.256,23.786 L15.428,22.43 L16.853,22.719 L17.352,23.415 L18.719,23.334 L18.756,22.931 L19.508,23.295 L20.354,24.621 L21.816,24.642 L22.356,25.585 L22.432,26.737 L24.049,27.354 L26.088,27.374 L26.685,28.353 L27.588,28.644 L27.416,29.453 L26.424,30.712 L26.135,33.498 L25.239,34.206 L23.914,34.165 L23.47,34.936 L23.799,36.379 L22.356,38.227 L21.893,39.075 L20.517,39.735 L19.614,39.874 L19.575,40.258 L20.211,40.441 L20.132,40.853 L19.564,41.4 L19.91,41.836 L20.594,41.856 L20.555,42.384 L20.373,42.905 L20.316,43.327 L21.328,44.181 L21.192,44.622 L19.814,44.598 L18.443,43.4 L17.376,41.523 L17.525,39.711 L16.716,38.634 L17.043,36.807 L16.564,36.671 L16.564,32.708 C16.564,32.708 15.216,31.687 15.14,31.687 C15.062,31.687 14.427,31.515 14.427,31.515 L14.293,30.764 L12.541,28.572 L12.714,27.783 L12.773,26.494 L13.984,25.646 L13.812,24.203 L12.042,24.07 L10.655,22.491 L9.675,22.222 L9.04,22.106 L9.116,21.53 L8.307,21.414 L8.307,21.741 L6.287,21.241 L5.473,19.997 L5.755,19.486 L5.421,19.482 L5.323,19.158 L5.56,19.038 L4.525,17.527 L4.304,16.16 L3.784,16.16 L3.958,17.487 L4.843,18.853 L4.746,19.393 L3.995,19.278 L3.073,17.704 L3.073,15.872 L2.11,15.409 L2.11,14.293 L2.11,14.091 C1.568,15.362 1.141,16.695 0.833,18.07 L0.887,18.059 L1.205,17.995 L1.393,18.898 L1.789,19.539 L2.053,19.841 L2.532,20.029 L2.081,20.565 L1.208,20.65 L0.548,20.65 L0.622,19.87 L1.169,19.757 L1.123,19.39 L0.67,19.104 L0.633,19.078 C0.397,20.402 0.266,21.762 0.266,23.151 C0.266,23.192 0.269,23.233 0.269,23.274 C0.336,35.984 10.694,46.305 23.419,46.305 C30.656,46.305 37.127,42.964 41.376,37.746 L40.613,37.746 L40.613,36.207 L39.728,35.018 L39.728,33.165 L39.053,32.494 L38.995,31.723 L39.849,30.087 L38.226,27.221 L38.417,25.276 L36.956,25.126 L36.417,24.587 L35.435,24.587 L34.935,25.049 L33.206,25.049 L33.146,25.202 L32.183,25.202 L29.972,22.681 L29.99,20.718 L30.355,20.583 L30.492,19.832 L29.972,19.832 L29.759,19.043 L32.318,17.196 L32.318,15.888 L33.572,15.192 L34.078,15.244 L35.109,15.244 L35.917,14.81 L38.515,14.607 L38.515,15.935 L40.565,16.456 L40.968,16.744 L41.345,16.744 L41.345,16.022 L42.528,15.907 L43.653,16.744 L45.5,16.744 L45.629,16.626 C45.446,16.003 45.237,15.392 45.003,14.79 L43.798,14.812 Z" id="Path"></path>
            </g>
        </g>
    </g>
</svg>