<?xml version="1.0" encoding="UTF-8"?>
<svg width="512px" height="512px" viewBox="0 0 512 512" version="1.1" xmlns="http://www.w3.org/2000/svg" xmlns:xlink="http://www.w3.org/1999/xlink">
    <!-- Generator: Sketch 51.3 (57544) - http://www.bohemiancoding.com/sketch -->
    <title>folder copy</title>
    <desc>Created with Sketch.</desc>
    <defs></defs>
    <g id="folder-copy" stroke="none" stroke-width="1" fill="none" fill-rule="evenodd">
        <g id="folder" fill="#9E9E9E">
            <path d="M485.714286,32.6666667 C493.333371,32.6666667 499.619023,35.5555267 504.571429,41.3333333 C509.523834,47.11114 512,64.4444 512,73.3333333 L512,478.666667 C512,488.444493 509.523834,496.444413 504.571429,502.666667 C499.619023,508.88892 493.333371,512 485.714286,512 L28.5714286,512 C20.9523429,512 14.2857429,508.6667 8.57142857,502 C2.85711429,495.3333 0,487.5556 0,478.666667 L0,30.6666667 C0,21.7777333 2.66664,14.4444733 8,8.66666667 C13.33336,2.88886 20.1904343,0 28.5714286,0 L156.571429,0 C164.190514,0 170.66664,3.11108 176,9.33333333 L202.285714,30 C203.809531,31.7777867 206.095223,32.6666667 209.142857,32.6666667 L485.714286,32.6666667 Z M42.0714286,32 C35.2142514,32 31.8571429,35.4444133 31.8571429,41.6666667 L31.8571429,128 C34.5714286,128 37.1904571,128 41,128 L471.642857,128 C475.4524,128 475.4524,128 480.071429,128 L480.071429,73.5 C480.071429,67.2777467 477.404789,64.1666667 472.071429,64.1666667 L209.142857,64 C201.523771,64 196.5,60.5 189.714286,54.6666667 L163.5,35 C161.976183,33.2222133 159.690491,32.3333333 156.642857,32.3333333 L42.0714286,32 Z M478.857143,468 L480,170.666667 C480,163.55552 476.952411,160 470.857143,160 L41.1428571,160 C35.0475886,160 32,163.55552 32,170.666667 L30.8571429,468 C30.8571429,470.66668 31.9999886,473.33332 34.2857143,476 C36.57144,478.66668 38.8571314,480 41.1428571,480 L470.857143,480 C476.190503,480 478.857143,476.00004 478.857143,468 Z" id="ï´"></path>
        </g>
    </g>
</svg>