<?xml version="1.0" encoding="UTF-8"?>
<svg width="512px" height="512px" viewBox="0 0 512 512" version="1.1" xmlns="http://www.w3.org/2000/svg" xmlns:xlink="http://www.w3.org/1999/xlink">
    <!-- Generator: Sketch 48.2 (47327) - http://www.bohemiancoding.com/sketch -->
    <title>icn_wrap copy 2</title>
    <desc>Created with Sketch.</desc>
    <defs></defs>
    <g id="Page-1" stroke="none" stroke-width="1" fill="none" fill-rule="evenodd">
        <g id="icn_wrap-copy-2" fill="#9E9E9E">
            <rect id="Rectangle-12" x="0" y="0" width="48" height="512"></rect>
            <rect id="Rectangle-12-Copy" x="208" y="48" width="48" height="144"></rect>
            <rect id="Rectangle-12-Copy-2" x="208" y="320" width="48" height="144"></rect>
            <g id="long-arrow-pointing-to-left" transform="translate(313.000000, 256.000000) scale(-1, 1) translate(-313.000000, -256.000000) translate(114.000000, 176.000000)" fill-rule="nonzero">
                <path d="M395.804255,56.8385967 C394.334727,56.0495129 392.467452,55.655662 390.184466,55.655662 L109.407976,55.655662 L109.407976,7.19607235 C109.407976,5.44147793 107.858043,1.17102074 104.768442,0.38193693 C101.671143,-0.318703163 98.8219008,2.94478542 96.219006,4.17102074 L2.4403743,84.7274263 C0.812602728,85.6054145 0,86.6575263 0,87.8842222 C0,89.0238564 0.812602728,90.0331282 2.4403743,90.9092738 L96.2198613,155.940545 C98.8253223,157.080179 101.674564,160.30221 104.769297,159.597884 C107.858899,158.897705 109.408831,154.627248 109.408831,152.78467 L109.408831,104.325081 L390.190453,104.325081 C392.468307,104.325081 394.342426,103.929387 395.805111,103.142606 C397.268651,102.354444 397.999993,101.347475 397.999993,100.119397 L397.999993,59.8664122 C398.002559,58.638795 397.267795,57.6286018 395.804255,56.8385967 Z" id="Shape"></path>
            </g>
        </g>
    </g>
</svg>