<?xml version="1.0" encoding="UTF-8"?>
<svg width="512px" height="512px" viewBox="0 0 512 512" version="1.1" xmlns="http://www.w3.org/2000/svg" xmlns:xlink="http://www.w3.org/1999/xlink">
    <!-- Generator: Sketch 48.2 (47327) - http://www.bohemiancoding.com/sketch -->
    <title>icn_wrap1 copy 2</title>
    <desc>Created with Sketch.</desc>
    <defs></defs>
    <g id="Page-1" stroke="none" stroke-width="1" fill="none" fill-rule="evenodd">
        <g id="icn_wrap1-copy-2" fill="#9E9E9E">
            <g id="flexlitem-noshrink" transform="translate(1.000000, 0.000000)">
                <rect id="Rectangle" x="0" y="0" width="48" height="512"></rect>
                <rect id="Rectangle-Copy" x="464" y="0" width="48" height="512"></rect>
            </g>
            <g id="curve-arrow" transform="translate(256.000000, 256.000000) rotate(90.000000) translate(-256.000000, -256.000000) translate(120.000000, 98.000000)" fill-rule="nonzero">
                <path d="M271.265963,243.50479 C269.76994,239.869943 266.214455,237.498546 262.289822,237.498546 L233.146509,237.498546 L233.146509,120.685658 C233.146509,61.4201665 190.674986,8.53023455 131.902637,0.988414041 C60.812381,-8.14729637 0,47.2695342 0,116.623183 L0,301.281159 C0,306.645959 4.35206816,311 9.71443787,311 L48.5721893,311 C53.934559,311 58.2866272,306.645959 58.2866272,301.281159 L58.2866272,118.916829 C58.2866272,90.7127529 77.2880677,64.8023232 104.954787,59.437523 C142.161084,52.2067054 174.859882,80.6634715 174.859882,116.623183 L174.859882,237.498546 L145.716568,237.498546 C141.791935,237.498546 138.236451,239.869943 136.740427,243.50479 C135.244404,247.139636 136.079846,251.318738 138.858175,254.098326 L197.144802,312.411372 C200.933433,316.201719 207.092386,316.201719 210.881017,312.411372 L269.167644,254.098326 C271.926545,251.318738 272.761986,247.139636 271.265963,243.50479 Z" id="Shape"></path>
            </g>
        </g>
    </g>
</svg>