<?xml version="1.0" encoding="UTF-8"?>
<svg width="512px" height="512px" viewBox="0 0 512 512" version="1.1" xmlns="http://www.w3.org/2000/svg" xmlns:xlink="http://www.w3.org/1999/xlink">
    <!-- Generator: Sketch 49 (51002) - http://www.bohemiancoding.com/sketch -->
    <title>icn_infinity</title>
    <desc>Created with Sketch.</desc>
    <defs></defs>
    <g id="icn_infinity" stroke="none" stroke-width="1" fill="none" fill-rule="evenodd">
        <g id="infinite-mathematical-symbol" transform="translate(0.000000, 118.000000)" fill="#FFFFFF" fill-rule="nonzero">
            <path d="M392.93457,2.30413041 C320.671364,2.30413041 272.84853,65.9324544 230.657695,122.082396 C194.610861,170.049206 160.571338,215.343079 119.112901,215.343079 C76.0201325,215.343079 49.5622781,167.646484 49.5622781,133.453335 C49.5622781,101.750545 78.5869139,55.6788915 124.076927,55.6788915 C168.21743,55.6788915 191.213351,93.72443 192.37298,95.6743597 C199.524026,108.137113 214.707709,112.058881 226.337907,104.419831 C238.025748,96.751568 241.728424,80.3305308 234.604503,67.7436251 C233.092238,65.0779908 196.740238,2.30778197 124.076927,2.30778197 C50.9592583,2.30778197 0,71.4316943 0,133.456986 C0,197.435859 48.9180397,268.721492 119.10951,268.721492 C184.208106,268.721492 227.409377,211.246036 269.179762,155.658433 C307.820503,104.251859 344.321695,55.682543 392.93457,55.682543 C421.857483,55.682543 440.862517,66.2501396 451.021139,87.9622781 C459.82347,106.804295 459.816689,128.125718 459.809907,135.512811 C459.809907,139.748613 457.731391,160.993353 448.108503,180.123843 C437.136106,201.916316 421.559099,212.060332 399.048053,212.060332 C353.717404,212.060332 329.226172,180.32833 320.003391,168.376795 C317.606146,165.265671 315.880265,163.027268 313.57457,160.902064 C303.192159,151.324039 287.540556,152.609386 278.629722,163.805049 C270.037616,174.602694 270.864954,190.654924 280.25049,200.371709 C280.698066,200.919442 281.237192,201.638798 281.87804,202.475004 C293.898172,218.052532 330.446834,265.42779 399.037881,265.42779 C482.402331,265.42779 509.362013,177.889092 509.362013,135.147656 C509.368795,107.925322 504.635338,83.978433 495.276927,63.9569638 C482.137854,35.84 453.709987,2.30413041 392.93457,2.30413041 Z" id="Shape"></path>
        </g>
    </g>
</svg>