<?xml version="1.0" encoding="UTF-8"?>
<svg width="512px" height="512px" viewBox="0 0 512 512" version="1.1" xmlns="http://www.w3.org/2000/svg" xmlns:xlink="http://www.w3.org/1999/xlink">
    <!-- Generator: Sketch 49.1 (51147) - http://www.bohemiancoding.com/sketch -->
    <title>icon_symbol</title>
    <desc>Created with Sketch.</desc>
    <defs></defs>
    <g id="icon_symbol" stroke="none" stroke-width="1" fill="none" fill-rule="evenodd">
        <g id="ViewGallery" fill="#6F727D" fill-rule="nonzero">
            <path d="M65.5914337,24.9755 L170.71658,24.9755 C192.467348,24.9755 210.051509,41.728 210.051509,62.5295 L210.051509,174.739 C210.051509,195.489 192.435,212.2925 170.71658,212.2925 L65.5914337,212.2925 C43.8401441,212.2925 26.2565039,195.5405 26.2565039,174.739 L26.2565039,62.529 C26.2565039,41.7795 43.8730137,24.9755 65.5914337,24.9755 Z M0,174.739 C0,209.3255 29.3305888,237.2685 65.5914337,237.2685 L170.71658,237.2685 C206.952903,237.2685 236.307492,209.2665 236.307492,174.7385 L236.307492,62.53 C236.307492,27.943 206.977425,0 170.71658,0 L65.5914337,0 C29.3551105,0 0,28.002 0,62.5295 L0,174.739 Z M341.28342,24.975 L446.408566,24.975 C468.159856,24.975 485.743496,41.7275 485.743496,62.529 L485.743496,174.7385 C485.743496,195.4885 468.126986,212.292 446.408566,212.292 L341.28342,212.292 C319.532652,212.292 301.948491,195.54 301.948491,174.7385 L301.948491,62.5285 C301.948491,41.779 319.565,24.975 341.28342,24.975 Z M275.692508,174.739 C275.692508,209.3255 305.022575,237.2685 341.28342,237.2685 L446.408566,237.2685 C482.64489,237.2685 512,209.2665 512,174.7385 L512,62.53 C512,27.943 482.669411,0 446.408566,0 L341.28342,0 C305.047097,0 275.692508,28.002 275.692508,62.5295 L275.692508,174.739 Z M65.5914337,299.7075 L170.71658,299.7075 C192.467348,299.7075 210.051509,316.4595 210.051509,337.261 L210.051509,449.471 C210.051509,470.2205 192.435,487.0245 170.71658,487.0245 L65.5914337,487.0245 C43.8401441,487.0245 26.2565039,470.272 26.2565039,449.4705 L26.2565039,337.261 C26.2565039,316.511 43.8730137,299.7075 65.5914337,299.7075 Z M0,449.47 C0,484.057 29.3305888,512 65.5914337,512 L170.71658,512 C206.952903,512 236.307492,483.998 236.307492,449.4705 L236.307492,337.261 C236.307492,302.6745 206.977425,274.7315 170.71658,274.7315 L65.5914337,274.7315 C29.3551105,274.7315 7.41435394e-15,302.7335 7.41435394e-15,337.2615 L0,449.47 Z M445.227871,487.024 L341.250029,487.024 C319.519609,487.024 301.948491,470.2735 301.948491,449.47 L301.948491,337.261 C301.948491,316.511 319.565,299.7075 341.28342,299.7075 L446.408566,299.7075 C468.160899,299.7075 485.743496,316.442 485.743496,337.2105 L485.743496,449.533 C485.743496,456.43 491.620883,462.0205 498.871487,462.0205 C506.122091,462.0205 512,456.43 512,449.533 L512,337.21 C512,302.651 482.665759,274.731 446.408566,274.731 L341.28342,274.731 C305.047097,274.731 275.692508,302.733 275.692508,337.261 L275.692508,449.47 C275.692508,484.055 305.005358,511.9995 341.250029,511.9995 L446.107001,511.9995 C453.65917,511.9995 459.536557,506.4085 459.536557,499.5115 C459.536557,492.615 453.65917,487.024 446.408566,487.024 L445.227871,487.024 Z" id="Shape"></path>
        </g>
    </g>
</svg>