<?xml version="1.0" encoding="UTF-8"?>
<svg width="9px" height="9px" viewBox="0 0 9 9" version="1.1" xmlns="http://www.w3.org/2000/svg" xmlns:xlink="http://www.w3.org/1999/xlink">
    <!-- Generator: Sketch 51.3 (57544) - http://www.bohemiancoding.com/sketch -->
    <title>noun_percentage_1896199 (1)</title>
    <desc>Created with Sketch.</desc>
    <defs></defs>
    <g id="Page-1" stroke="none" stroke-width="1" fill="none" fill-rule="evenodd">
        <g id="BX-Design-share" transform="translate(-1363.000000, -185.000000)" fill="#FFFFFF" fill-rule="nonzero">
            <g id="noun_percentage_1896199-(1)" transform="translate(1363.000000, 185.000000)">
                <path d="M7.03125,5.0625 C5.9625,5.0625 5.0625,5.9625 5.0625,7.03125 C5.0625,8.1 5.9625,9 7.03125,9 C8.1,9 9,8.1 9,7.03125 C9,5.9625 8.1,5.0625 7.03125,5.0625 Z M7.03125,7.875 C6.58125,7.875 6.1875,7.48125 6.1875,7.03125 C6.1875,6.58125 6.58125,6.1875 7.03125,6.1875 C7.48125,6.1875 7.875,6.58125 7.875,7.03125 C7.875,7.48125 7.48125,7.875 7.03125,7.875 Z" id="Shape"></path>
                <path d="M8.26875,1.51875 L2.75625,7.03125 L1.96875,7.81875 L1.51875,8.26875 C1.29375,8.49375 0.95625,8.49375 0.73125,8.26875 C0.50625,8.04375 0.50625,7.70625 0.73125,7.48125 C0.73125,7.48125 0.73125,7.48125 0.73125,7.48125 L1.18125,7.03125 L1.96875,6.24375 L7.48125,0.73125 C7.70625,0.50625 8.04375,0.50625 8.26875,0.73125 C8.49375,0.95625 8.49375,1.29375 8.26875,1.51875 Z" id="Shape"></path>
                <path d="M1.96875,0 C0.9,0 0,0.9 0,1.96875 C0,3.0375 0.9,3.9375 1.96875,3.9375 C3.0375,3.9375 3.9375,3.0375 3.9375,1.96875 C3.9375,0.9 3.0375,0 1.96875,0 Z M1.96875,2.8125 C1.51875,2.8125 1.125,2.41875 1.125,1.96875 C1.125,1.51875 1.51875,1.125 1.96875,1.125 C2.41875,1.125 2.8125,1.51875 2.8125,1.96875 C2.8125,2.41875 2.41875,2.8125 1.96875,2.8125 Z" id="Shape"></path>
            </g>
        </g>
    </g>
</svg>