<?xml version="1.0" encoding="UTF-8"?>
<svg width="512px" height="512px" viewBox="0 0 512 512" version="1.1" xmlns="http://www.w3.org/2000/svg" xmlns:xlink="http://www.w3.org/1999/xlink">
    <!-- Generator: Sketch 48.2 (47327) - http://www.bohemiancoding.com/sketch -->
    <title>icon_activityindicator</title>
    <desc>Created with Sketch.</desc>
    <defs></defs>
    <g id="Page-1" stroke="none" stroke-width="1" fill="none" fill-rule="evenodd">
        <g id="icon_activityindicator" fill="#979797" fill-rule="nonzero">
            <g id="spinner-circle" transform="translate(0.000000, 8.000000)">
                <path d="M511.72964,256.194104 C511.071072,221.705903 503.588147,187.326638 489.769099,155.890631 C475.995605,124.426894 456.004828,95.9252302 431.462499,72.3732302 C406.935025,48.8034043 377.847087,30.1703675 346.364534,17.8784062 C314.898816,5.53890909 281.065222,-0.355528046 247.641625,0.359489362 C214.213075,1.02102901 180.933075,8.28905222 150.49928,21.6901818 C120.042708,35.0477369 92.4511567,54.428472 69.6567582,78.2092379 C46.8465145,101.97812 28.8264913,130.153965 16.9494778,160.633315 C5.02789942,191.09583 -0.653617021,223.827188 0.0594197292,256.194104 C0.722940039,288.565973 7.77705222,320.745718 20.7602631,350.175319 C33.7008897,379.625718 52.4696015,406.308147 75.4917756,428.342963 C98.5010754,450.395605 125.766809,467.803605 155.240975,479.2627 C184.702267,490.76636 216.33436,496.232975 247.641625,495.522909 C278.955822,494.858398 310.033331,488.016217 338.46171,475.450925 C366.907915,462.927226 392.679242,444.771528 413.955466,422.506956 C435.250507,400.255257 452.044503,373.901617 463.086669,345.432634 C469.811002,328.174174 474.372456,310.153161 476.776975,291.893478 C477.419698,291.93012 478.066383,291.955868 478.718019,291.955868 C496.948983,291.955868 511.72865,277.177191 511.72865,258.945238 C511.72865,258.01829 511.680124,257.102236 511.605849,256.195095 L511.72964,256.194104 Z M459.276874,343.85207 C447.169114,371.294081 429.626429,396.153315 408.121439,416.672928 C386.628333,437.204426 361.183814,453.39036 333.721006,464.017578 C306.26513,474.68342 276.833547,479.723203 247.642615,479.017099 C218.446731,478.346646 189.565772,471.932286 163.144789,460.203822 C136.710932,448.512 112.75983,431.582329 92.9997988,410.836921 C73.224913,390.101416 57.6539729,365.568 47.4436828,339.110375 C37.1947698,312.656712 32.3679072,284.324395 33.0720309,256.192124 C33.7434739,228.053911 39.9459033,200.273207 51.2554584,174.855427 C62.5293617,149.426754 78.8489903,126.385764 98.8358066,107.384325 C118.81272,88.3680309 142.436023,73.4091141 167.887474,63.6167427 C193.335954,53.7847582 220.568015,49.1708162 247.642615,49.8739497 C274.721176,50.5473733 301.403605,56.536882 325.818182,67.4285184 C350.241671,78.2854932 372.371559,93.9930986 390.614406,113.222313 C408.872108,132.439644 423.218012,155.153826 432.595435,179.599103 C442.00752,204.044379 446.408542,230.177176 445.708379,256.193114 L445.83217,256.193114 C445.756905,257.100255 445.708379,258.016309 445.708379,258.943257 C445.708379,275.969981 458.60048,289.980162 475.152836,291.759783 C471.94219,309.722368 466.627095,327.25713 459.276874,343.85207 Z" id="Shape"></path>
            </g>
        </g>
    </g>
</svg>