<?xml version="1.0" encoding="UTF-8"?>
<svg width="14px" height="17px" viewBox="0 0 14 17" version="1.1" xmlns="http://www.w3.org/2000/svg" xmlns:xlink="http://www.w3.org/1999/xlink">
    <!-- Generator: Sketch 51.3 (57544) - http://www.bohemiancoding.com/sketch -->
    <title>user (4)</title>
    <desc>Created with Sketch.</desc>
    <defs></defs>
    <g id="Page-1" stroke="none" stroke-width="1" fill="none" fill-rule="evenodd">
        <g id="BX-Design-share" transform="translate(-1404.000000, -9.000000)" fill="#6F727D" fill-rule="nonzero">
            <g id="user-(4)" transform="translate(1404.000000, 9.000000)">
                <path d="M6.63157893,8.10526316 C7.64383242,8.10526316 8.52024739,7.70589238 9.23655036,6.91793416 C9.95261991,6.13010433 10.3157895,5.16614569 10.3157895,4.05250321 C10.3157895,2.93924587 9.9527366,1.97515883 9.23643366,1.18707227 C8.5201307,0.399370811 7.64371573,0 6.63157893,0 C5.61920878,0 4.74291048,0.399370811 4.02672423,1.18720064 C3.31053799,1.97503046 2.94736842,2.9391175 2.94736842,4.05250321 C2.94736842,5.16614569 3.31053799,6.13023269 4.02672423,6.91806252 C4.74314389,7.70576398 5.61955886,8.10526316 6.63157893,8.10526316 Z M4.66063717,1.8843986 C5.21017623,1.27988648 5.85482552,0.986038929 6.63157893,0.986038929 C7.40821565,0.986038929 8.05298169,1.27988648 8.60263741,1.8843986 C9.15217644,2.48903904 9.41941884,3.19830412 9.41941884,4.05250321 C9.41941884,4.90695904 9.15217644,5.61609575 8.60263741,6.22073619 C8.05298169,6.82537667 7.40821565,7.11922423 6.63157893,7.11922423 C5.85505893,7.11922423 5.21040962,6.82524831 4.66063717,6.22073619 C4.11098145,5.61622411 3.84373905,4.90695904 3.84373905,4.05250321 C3.84373905,3.19830412 4.11098145,2.48903904 4.66063717,1.8843986 Z" id="Shape"></path>
                <path d="M13.9660735,12.5879848 C13.9434132,12.2824779 13.8975803,11.9492194 13.8301114,11.5973003 C13.7620023,11.2427497 13.6743055,10.9075772 13.5693253,10.601233 C13.4607605,10.2846015 13.3134042,9.97191752 13.1309692,9.67227193 C12.9418768,9.36126255 12.7196262,9.09044516 12.4702343,8.867595 C12.2094482,8.63445757 11.8901549,8.4470146 11.520932,8.31029012 C11.1529894,8.17428331 10.7452311,8.10538277 10.3090513,8.10538277 C10.1377544,8.10538277 9.97209065,8.17105362 9.65215722,8.36567369 C9.45525543,8.48565155 9.2249392,8.62440957 8.96786584,8.77788075 C8.74804764,8.90874394 8.45026245,9.03135339 8.08244784,9.14235982 C7.72359493,9.25085422 7.35923699,9.30587898 6.9994879,9.30587898 C6.63999488,9.30587898 6.27563694,9.25085422 5.916528,9.14235982 C5.54909743,9.03147301 5.25118423,8.90886355 5.03175011,8.77800036 C4.77710919,8.62596461 4.54666495,8.48720659 4.34681859,8.36555408 C4.02714122,8.17093401 3.86147739,8.10526316 3.69018052,8.10526316 C3.25387275,8.10526316 2.84624248,8.17428331 2.47842787,8.31040973 C2.10946101,8.44689499 1.79003971,8.63433796 1.52899758,8.86771462 C1.27960569,9.09068441 1.05735502,9.3613822 0.86839074,9.67227193 C0.686211753,9.97191752 0.538727436,10.2844819 0.430162592,10.6013526 C0.325310452,10.9076969 0.237613622,11.2427497 0.169504545,11.5973003 C0.101907566,11.9487409 0.0562027992,12.2821191 0.0335424566,12.5883437 C0.0112661631,12.88775 0,13.1993575 0,13.5141947 C0,14.3326278 0.278453472,14.9951974 0.827550891,15.4838409 C1.36986302,15.9660251 2.08731277,16.2105263 2.96005633,16.2105263 L11.0399437,16.2105263 C11.9124312,16.2105263 12.629881,15.9660251 13.1723211,15.4838409 C13.7215466,14.9955562 14,14.3327474 14,13.514075 C13.999872,13.1981613 13.9884778,12.8865538 13.9660735,12.5879848 Z M12.6428754,14.9725404 C12.2735097,15.3097587 11.7831336,15.4736842 11.1436387,15.4736842 L2.81529343,15.4736842 C2.17566659,15.4736842 1.68529044,15.3097587 1.3160567,14.972667 C0.953817036,14.6419045 0.777777778,14.1903815 0.777777778,13.5926546 C0.777777778,13.2817657 0.788466809,12.9748008 0.809844904,12.6801146 C0.830695113,12.3909981 0.873319315,12.0734003 0.936529816,11.7359289 C0.998948519,11.4026348 1.07839053,11.0898471 1.17287636,10.80668 C1.26353523,10.5351585 1.387185,10.2662954 1.54052651,10.0073057 C1.68687397,9.760468 1.85525937,9.54869394 2.0410639,9.37805949 C2.21485976,9.2184378 2.43391908,9.08780371 2.69203959,8.98982813 C2.93076146,8.89919439 3.19904315,8.84957369 3.49028649,8.84210526 C3.52578465,8.8602067 3.58899515,8.89476397 3.69139878,8.95881519 C3.89976908,9.08906953 4.13994256,9.23767848 4.40545302,9.40033817 C4.70474612,9.58337779 5.0903433,9.74869575 5.55102771,9.89135528 C6.02200525,10.0374325 6.50235221,10.1116104 6.97913614,10.1116104 C7.45592011,10.1116104 7.93639902,10.0374325 8.40711265,9.89148185 C8.86819293,9.74856918 9.25365819,9.58337779 9.55334716,9.40008499 C9.82505991,9.23350124 10.0585032,9.0891961 10.2668735,8.95881519 C10.3692772,8.89489057 10.4324877,8.8602067 10.4679858,8.84210526 C10.7593611,8.84957369 11.0276428,8.89919439 11.2664967,8.98982813 C11.5244852,9.08780371 11.7435445,9.21856438 11.9173404,9.37805949 C12.1031449,9.54856737 12.2715303,9.76034143 12.4178778,10.0074323 C12.5713513,10.2662954 12.695133,10.5352851 12.7856599,10.8065534 C12.8802777,11.0901003 12.9598517,11.4027613 13.0221384,11.7358023 C13.0852169,12.0739066 13.1279731,12.391631 13.1488233,12.6802412 L13.1488233,12.6804944 C13.1703334,12.9740414 13.1811543,13.2808796 13.1812863,13.5926546 C13.1811543,14.1905081 13.0051151,14.6419045 12.6428754,14.9725404 Z" id="Shape"></path>
            </g>
        </g>
    </g>
</svg>