<?xml version="1.0" encoding="UTF-8"?>
<svg width="512px" height="512px" viewBox="0 0 512 512" version="1.1" xmlns="http://www.w3.org/2000/svg" xmlns:xlink="http://www.w3.org/1999/xlink">
    <!-- Generator: Sketch 49.3 (51167) - http://www.bohemiancoding.com/sketch -->
    <title>icon_map</title>
    <desc>Created with Sketch.</desc>
    <defs></defs>
    <g id="icon_map" stroke="none" stroke-width="1" fill="none" fill-rule="evenodd">
        <g id="noun_1312303_cc" transform="translate(0.000000, 5.000000)" fill="#979797" fill-rule="nonzero">
            <g id="Group" transform="translate(0.000000, 0.797254)">
                <path d="M255.818193,0.156293953 C191.995823,0.156293953 139.636375,51.2056707 139.636375,117.737689 C139.636375,133.84634 143.468404,154.499647 148.727284,168.714433 C180.824506,237.208186 213.200652,305.797135 245.454557,374.295591 C247.315212,378.374921 251.600588,381.179609 256.000012,381.179609 C260.39943,381.179609 264.684812,378.374921 266.545466,374.295591 C298.411759,305.614363 331.677737,237.443944 363.272733,168.714433 C368.570944,154.46714 372.363642,133.836755 372.363642,117.737689 C372.363642,51.170426 319.641146,0.156293953 255.818193,0.156293953 Z M255.818193,23.9702474 C307.684841,23.9702474 349.090915,63.8515944 349.090915,117.737689 C349.090915,129.215181 345.176099,149.60451 341.454551,159.784201 C313.245161,220.477991 284.524573,281.125879 256.000012,341.737749 C228.486935,280.665674 197.416041,221.059825 170.545466,159.784201 C166.833815,149.580696 162.909103,129.193868 162.909103,117.737689 C162.909103,63.8163498 203.952297,23.9702474 255.818193,23.9702474 Z M256.000012,53.7376893 C220.792035,53.7376893 192.000012,83.1989433 192.000012,119.226061 C192.000012,155.252703 220.791924,184.714433 256.000012,184.714433 C291.208681,184.714433 320.000012,155.252465 320.000012,119.226061 C320.000012,83.1991814 291.208506,53.7376893 256.000012,53.7376893 Z M256.000012,77.5516428 C278.630813,77.5516428 296.727284,96.0693135 296.727284,119.226061 C296.727284,142.382095 278.630644,160.90048 256.000012,160.90048 C233.370252,160.90048 215.272739,142.381857 215.272739,119.226061 C215.272739,96.0695516 233.370071,77.5516428 256.000012,77.5516428 Z M46.5454662,238.295888 C39.9705135,238.295888 37.1454371,241.995386 35.0909207,248.3424 L0.181826909,486.481935 C-0.862478545,493.241526 4.948256,500.225563 11.6363724,500.249377 L500.363631,500.249377 C507.051741,500.249377 512.862476,493.241526 511.818176,486.481935 L476.909085,248.3424 C476.053807,242.8128 470.925661,238.31494 465.45454,238.295888 L356.727279,238.295888 C352.964893,246.274158 349.047977,254.144074 345.272733,262.109842 L455.45454,262.109842 L462.363631,309.737749 L322.727279,309.737749 C317.575686,320.59453 312.389882,331.445953 307.272733,342.295591 L412.181824,476.435423 L238.363642,476.435423 L166.000006,383.78426 L207.272733,348.06333 C203.826508,340.742326 200.35602,333.434419 196.909097,326.109842 L151.454551,365.365358 L70.7272785,262.109842 L166.909097,262.109842 C163.171322,254.156577 159.370886,246.247963 155.636369,238.295888 L46.5454604,238.295888 L46.5454662,238.295888 Z M54.0000116,278.854028 L208.545466,476.435423 L25.0909207,476.435423 L54.0000116,278.854028 Z M330.181824,333.551702 L465.999994,333.551702 L474.727267,393.086586 L376.727279,393.086586 L330.181824,333.551702 Z M395.454551,416.90054 L478.181812,416.90054 L486.909085,476.435423 L441.999994,476.435423 L395.454551,416.90054 Z" id="Shape"></path>
            </g>
        </g>
    </g>
</svg>