<?xml version="1.0" encoding="UTF-8"?>
<svg width="512px" height="512px" viewBox="0 0 512 512" version="1.1" xmlns="http://www.w3.org/2000/svg" xmlns:xlink="http://www.w3.org/1999/xlink">
    <!-- Generator: Sketch 48.2 (47327) - http://www.bohemiancoding.com/sketch -->
    <title>icon_slider</title>
    <desc>Created with Sketch.</desc>
    <defs></defs>
    <g id="Page-1" stroke="none" stroke-width="1" fill="none" fill-rule="evenodd">
        <g id="icon_slider" fill="#979797">
            <g id="Group-2" transform="translate(0.000000, 79.000000)">
                <g id="Group">
                    <path d="M124.842623,64 C123.005949,68.8148981 122,74.039973 122,79.5 C122,85.3403009 123.150951,90.9117827 125.238409,96 L16,96 C7.163444,96 1.082166e-15,88.836556 0,80 C-1.082166e-15,71.163444 7.163444,64 16,64 L124.842623,64 Z M206.157377,64 L496,64 C504.836556,64 512,71.163444 512,80 C512,88.836556 504.836556,96 496,96 L205.761596,96 C207.849049,90.9117832 209,85.3403012 209,79.5 C209,74.039973 207.994051,68.8148981 206.157377,64 Z" id="Combined-Shape"></path>
                    <path d="M168,160 C123.81722,160 88,124.18278 88,80 C88,35.81722 123.81722,0 168,0 C212.18278,0 248,35.81722 248,80 C248,124.18278 212.18278,160 168,160 Z M168,120 C190.09139,120 208,102.09139 208,80 C208,57.90861 190.09139,40 168,40 C145.90861,40 128,57.90861 128,80 C128,102.09139 145.90861,120 168,120 Z" id="Combined-Shape"></path>
                </g>
                <g id="Group-Copy" transform="translate(256.000000, 274.000000) scale(-1, -1) translate(-256.000000, -274.000000) translate(0.000000, 194.000000)">
                    <path d="M124.842623,64 C123.005949,68.8148981 122,74.039973 122,79.5 C122,85.3403009 123.150951,90.9117827 125.238409,96 L16,96 C7.163444,96 1.082166e-15,88.836556 0,80 C-1.082166e-15,71.163444 7.163444,64 16,64 L124.842623,64 Z M206.157377,64 L496,64 C504.836556,64 512,71.163444 512,80 C512,88.836556 504.836556,96 496,96 L205.761596,96 C207.849049,90.9117832 209,85.3403012 209,79.5 C209,74.039973 207.994051,68.8148981 206.157377,64 Z" id="Combined-Shape"></path>
                    <path d="M168,160 C123.81722,160 88,124.18278 88,80 C88,35.81722 123.81722,0 168,0 C212.18278,0 248,35.81722 248,80 C248,124.18278 212.18278,160 168,160 Z M168,120 C190.09139,120 208,102.09139 208,80 C208,57.90861 190.09139,40 168,40 C145.90861,40 128,57.90861 128,80 C128,102.09139 145.90861,120 168,120 Z" id="Combined-Shape"></path>
                </g>
            </g>
        </g>
    </g>
</svg>