<?xml version="1.0" encoding="UTF-8"?>
<svg width="512px" height="512px" viewBox="0 0 512 512" version="1.1" xmlns="http://www.w3.org/2000/svg" xmlns:xlink="http://www.w3.org/1999/xlink">
    <!-- Generator: Sketch 48.2 (47327) - http://www.bohemiancoding.com/sketch -->
    <title>icon_locklayer</title>
    <desc>Created with Sketch.</desc>
    <defs></defs>
    <g id="Page-1" stroke="none" stroke-width="1" fill="none" fill-rule="evenodd">
        <g id="icon_locklayer" fill="#6F727D">
            <path d="M402.372694,170.666667 C415.377433,170.666667 426.756409,175.542808 436.509963,185.295238 C446.263517,195.047668 451.140221,206.425332 451.140221,219.428571 L451.140221,463.238095 C451.140221,476.241335 446.263517,487.618999 436.509963,497.371429 C426.756409,507.123858 415.377433,512 402.372694,512 L109.767528,512 C96.7627886,512 85.3838126,507.123858 75.6302583,497.371429 C65.876704,487.618999 61,476.241335 61,463.238095 L61,219.428571 C61,206.425332 65.876704,195.047668 75.6302583,185.295238 C85.3838126,175.542808 96.7627886,170.666667 109.767528,170.666667 L134.151292,170.666667 L134.151292,121.904762 C134.151292,88.5839604 146.139856,59.9366278 170.117343,35.9619048 C194.094831,11.9871817 222.745467,0 256.070111,0 C289.394755,0 318.045391,11.9871817 342.022878,35.9619048 C366.000366,59.9366278 377.98893,88.5839604 377.98893,121.904762 L377.98893,170.666667 L402.372694,170.666667 Z M256.070111,392.02952 C269.043361,392.02952 280.394785,387.164624 290.124723,377.434686 C299.854661,367.704748 304.719557,356.353324 304.719557,343.380074 C304.719557,330.406823 299.854661,319.055399 290.124723,309.325461 C280.394785,299.595523 269.043361,294.730627 256.070111,294.730627 C243.09686,294.730627 231.745436,299.595523 222.015498,309.325461 C212.28556,319.055399 207.420664,330.406823 207.420664,343.380074 C207.420664,356.353324 212.28556,367.704748 222.015498,377.434686 C231.745436,387.164624 243.09686,392.02952 256.070111,392.02952 Z M331.169742,170.98155 L331.169742,122.082049 C331.169742,100.892159 323.8564,82.9625218 309.229496,68.2925982 C294.602593,53.6226746 276.725535,46.2878229 255.597786,46.2878229 C234.470037,46.2878229 216.592979,53.6226746 201.966075,68.2925982 C187.339172,82.9625218 180.02583,100.892159 180.02583,122.082049 L180.02583,170.98155 L331.169742,170.98155 Z" id=""></path>
        </g>
    </g>
</svg>