<?xml version="1.0" encoding="UTF-8"?>
<svg width="512px" height="512px" viewBox="0 0 512 512" version="1.1" xmlns="http://www.w3.org/2000/svg" xmlns:xlink="http://www.w3.org/1999/xlink">
    <!-- Generator: Sketch 48.2 (47327) - http://www.bohemiancoding.com/sketch -->
    <title>icon_showlayer</title>
    <desc>Created with Sketch.</desc>
    <defs></defs>
    <g id="Page-1" stroke="none" stroke-width="1" fill="none" fill-rule="evenodd">
        <g id="icon_showlayer" fill="#93969f">
            <path d="M510.666667,256.333333 L512,257.666667 L504,265.666667 C459.555333,310.111333 424.889013,340.777693 400,357.666667 C351.99976,389.666827 304.00024,405.666667 256,405.666667 C221.33316,405.666667 188.22238,398.111187 156.666667,383 C125.110953,367.888813 100.888973,352.777853 84,337.666667 C67.1110267,322.55548 42.2223867,298.55572 9.33333333,265.666667 L0,256.333333 L1.33333333,255 C50.2224667,205.221973 91.9998267,169.222333 126.666667,147 C169.333547,120.3332 212.444227,107 256,107 C339.555973,107 424.444013,156.77728 510.666667,256.333333 Z M256,363 C285.33348,363 310.44434,352.55566 331.333333,331.666667 C352.222327,310.777673 362.666667,285.666813 362.666667,256.333333 C362.666667,226.999853 352.222327,201.888993 331.333333,181 C310.44434,160.111007 285.33348,149.666667 256,149.666667 C226.66652,149.666667 201.55566,160.111007 180.666667,181 C159.777673,201.888993 149.333333,226.999853 149.333333,256.333333 C149.333333,285.666813 159.777673,310.777673 180.666667,331.666667 C201.55566,352.55566 226.66652,363 256,363 Z M248,217.666667 C248,230.111173 252.66662,240.999953 262,250.333333 C271.33338,259.666713 282.22216,264.333333 294.666667,264.333333 C304.444493,264.333333 312.888853,261.666693 320,256.333333 C320,274.1112 313.77784,289.22216 301.333333,301.666667 C288.888827,314.111173 273.777867,320.333333 256,320.333333 C238.222133,320.333333 223.111173,314.111173 210.666667,301.666667 C198.22216,289.22216 192,274.1112 192,256.333333 C192,238.555467 198.22216,223.444507 210.666667,211 C223.111173,198.555493 238.222133,192.333333 256,192.333333 C250.66664,199.44448 248,207.88884 248,217.666667 Z" id="ï¥-copy"></path>
        </g>
    </g>
</svg>