<?xml version="1.0" encoding="UTF-8"?>
<svg width="512px" height="512px" viewBox="0 0 512 512" version="1.1" xmlns="http://www.w3.org/2000/svg" xmlns:xlink="http://www.w3.org/1999/xlink">
    <!-- Generator: Sketch 47.1 (45422) - http://www.bohemiancoding.com/sketch -->
    <title>icon_info copy</title>
    <desc>Created with Sketch.</desc>
    <defs>
        <polygon id="path-1" points="0.00743539618 0.476 86.9972082 0.476 86.9972082 87.9741896 0.00743539618 87.9741896"></polygon>
        <polygon id="path-3" points="4.56213134e-15 261 4.56213134e-15 0 175 4.09965386e-14 175 261"></polygon>
    </defs>
    <g id="Page-1" stroke="none" stroke-width="1" fill="none" fill-rule="evenodd">
        <g id="icon_info-copy">
            <g id="Page-1" transform="translate(169.000000, 60.000000)">
                <g id="Group-3" transform="translate(22.000000, 0.000000)">
                    <mask id="mask-2" fill="white">
                        <use xlink:href="#path-1"></use>
                    </mask>
                    <g id="Clip-2"></g>
                    <path d="M53.7949147,2.84733333 C71.3183779,10.5873333 86.0335324,20.88 86.9566279,43.33 C87.8560544,65.2086667 73.7313485,82.7673333 51.8431721,87.1913333 C31.2145765,91.3613333 8.68413529,78.44 2.19687794,58.72 C-4.41128382,38.6306667 4.24969412,18.4013333 23.9833412,7.69266667 C26.6918559,6.22266667 29.2589956,5.19133333 31.8913853,3.56866667 C46.1875324,-1.48266667 48.9574588,0.682 53.7949147,2.84733333" id="Fill-1" fill="#9E9E9E" mask="url(#mask-2)"></path>
                </g>
                <g id="Group-6" transform="translate(0.000000, 131.000000)">
                    <mask id="mask-4" fill="white">
                        <use xlink:href="#path-3"></use>
                    </mask>
                    <g id="Clip-5"></g>
                    <path d="M0.0750369443,39.9422831 C-0.834540341,25.1399898 6.54517864,18.0381489 21.1205628,13.5218772 C47.1019391,5.47091249 72.4547831,-3.41738719 100.605856,1.32823208 C133.037518,6.79579131 152.696149,28.4878872 147.44565,59.224066 C142.184459,90.0193847 132.537289,120.140364 124.965115,150.591661 C121.487949,164.575371 117.672459,178.532396 115.249211,192.690641 C111.161077,216.567309 121.138934,226.706923 146.591823,225.029368 C155.696761,224.429314 164.695543,222.395477 174.900984,220.839809 C175.634909,233.290929 172.499884,241.296457 158.367451,246.148095 C129.444268,256.077835 101.064082,265.887852 69.54047,258.302794 C39.9948642,251.193741 21.4825608,229.679787 27.0454163,201.482298 C34.5946787,163.215874 46.2458215,125.679324 55.733377,87.7396123 C58.0955286,78.2923681 60.0926273,68.5061511 60.1628885,58.8620142 C60.2812634,42.5538162 52.5426013,35.5579944 34.7405471,35.8342212 C23.5002797,36.0087561 12.2981977,38.4125782 0.0750369443,39.9422831" id="Fill-4" fill="#9E9E9E" mask="url(#mask-4)"></path>
                </g>
            </g>
            <circle id="Oval-2" stroke="#979797" stroke-width="32" cx="256" cy="256" r="240"></circle>
        </g>
    </g>
</svg>