<?xml version="1.0" encoding="UTF-8"?>
<svg width="512px" height="512px" viewBox="0 0 512 512" version="1.1" xmlns="http://www.w3.org/2000/svg" xmlns:xlink="http://www.w3.org/1999/xlink">
    <!-- Generator: Sketch 48.2 (47327) - http://www.bohemiancoding.com/sketch -->
    <title>icon_switch</title>
    <desc>Created with Sketch.</desc>
    <defs></defs>
    <g id="Page-1" stroke="none" stroke-width="1" fill="none" fill-rule="evenodd">
        <g id="icon_switch" fill="#9E9E9E">
            <path d="M109.714286,328.857143 C94.4761143,328.857143 81.5238629,334.190423 70.8571429,344.857143 C60.1904229,355.523863 54.8571429,368.476114 54.8571429,383.714286 C54.8571429,398.952457 60.1904229,411.904709 70.8571429,422.571429 C81.5238629,433.238149 94.4761143,438.571429 109.714286,438.571429 C124.952457,438.571429 137.904709,433.238149 148.571429,422.571429 C159.238149,411.904709 164.571429,398.952457 164.571429,383.714286 C164.571429,368.476114 159.238149,355.523863 148.571429,344.857143 C137.904709,334.190423 124.952457,328.857143 109.714286,328.857143 Z M109.714286,310.571429 C129.523909,310.571429 146.666594,317.809451 161.142857,332.285714 C175.61912,346.761977 182.857143,363.904663 182.857143,383.714286 C182.857143,403.523909 175.61912,420.666594 161.142857,435.142857 C146.666594,449.61912 129.523909,456.857143 109.714286,456.857143 C89.9046629,456.857143 72.7619771,449.61912 58.2857143,435.142857 C43.8094514,420.666594 36.5714286,403.523909 36.5714286,383.714286 C36.5714286,363.904663 43.8094514,346.761977 58.2857143,332.285714 C72.7619771,317.809451 89.9046629,310.571429 109.714286,310.571429 Z M401.142857,292.285714 L109.714286,292.285714 C84.5713029,292.285714 63.0477086,301.238006 45.1428571,319.142857 C27.2380057,337.047709 18.2857143,358.571303 18.2857143,383.714286 C18.2857143,408.857269 27.2380057,430.380863 45.1428571,448.285714 C63.0477086,466.190566 84.5713029,475.142857 109.714286,475.142857 L402.285714,475.142857 C427.428697,475.142857 448.952291,466.190566 466.857143,448.285714 C484.761994,430.380863 493.714286,408.857269 493.714286,383.714286 C493.714286,358.571303 484.57152,337.047709 466.285714,319.142857 C447.999909,301.238006 426.28584,292.285714 401.142857,292.285714 Z M402.285714,274 C432.762057,274 458.66656,284.66656 480,306 C501.33344,327.33344 512,353.237943 512,383.714286 C512,414.190629 501.33344,440.095131 480,461.428571 C458.66656,482.762011 432.762057,493.428571 402.285714,493.428571 L109.714286,493.428571 C79.2379429,493.428571 53.33344,482.762011 32,461.428571 C10.66656,440.095131 0,414.190629 0,383.714286 C0,353.237943 10.66656,327.33344 32,306 C53.33344,284.66656 79.2379429,274 109.714286,274 L402.285714,274 Z M402.285714,72.8571429 C387.047543,72.8571429 374.095291,78.1904229 363.428571,88.8571429 C352.761851,99.5238629 347.428571,112.476114 347.428571,127.714286 C347.428571,142.952457 352.761851,155.904709 363.428571,166.571429 C374.095291,177.238149 387.047543,182.571429 402.285714,182.571429 C417.523886,182.571429 430.476137,177.238149 441.142857,166.571429 C451.809577,155.904709 457.142857,142.952457 457.142857,127.714286 C457.142857,112.476114 451.809577,99.5238629 441.142857,88.8571429 C430.476137,78.1904229 417.523886,72.8571429 402.285714,72.8571429 Z M402.285714,54.5714286 C422.095337,54.5714286 439.238023,61.8094514 453.714286,76.2857143 C468.190549,90.7619771 475.428571,107.904663 475.428571,127.714286 C475.428571,147.523909 468.190549,164.666594 453.714286,179.142857 C439.238023,193.61912 422.095337,200.857143 402.285714,200.857143 C382.476091,200.857143 365.333406,193.61912 350.857143,179.142857 C336.38088,164.666594 329.142857,147.523909 329.142857,127.714286 C329.142857,107.904663 336.38088,90.7619771 350.857143,76.2857143 C365.333406,61.8094514 382.476091,54.5714286 402.285714,54.5714286 Z M110.857143,36.2857143 C85.71416,36.2857143 64.0000914,45.2380057 45.7142857,63.1428571 C27.42848,81.0477086 18.2857143,102.571303 18.2857143,127.714286 C18.2857143,152.857269 27.2380057,174.380863 45.1428571,192.285714 C63.0477086,210.190566 84.5713029,219.142857 109.714286,219.142857 L402.285714,219.142857 C427.428697,219.142857 448.952291,210.190566 466.857143,192.285714 C484.761994,174.380863 493.714286,152.857269 493.714286,127.714286 C493.714286,102.571303 484.761994,81.0477086 466.857143,63.1428571 C448.952291,45.2380057 427.428697,36.2857143 402.285714,36.2857143 L110.857143,36.2857143 Z M109.714286,18 L402.285714,18 C432.762057,18 458.66656,28.66656 480,50 C501.33344,71.33344 512,97.2379429 512,127.714286 C512,158.190629 501.33344,184.095131 480,205.428571 C458.66656,226.762011 432.762057,237.428571 402.285714,237.428571 L109.714286,237.428571 C79.2379429,237.428571 53.33344,226.762011 32,205.428571 C10.66656,184.095131 0,158.190629 0,127.714286 C0,97.2379429 10.66656,71.33344 32,50 C53.33344,28.66656 79.2379429,18 109.714286,18 Z" id=""></path>
        </g>
    </g>
</svg>