<?xml version="1.0" encoding="UTF-8"?>
<svg width="512px" height="512px" viewBox="0 0 512 512" version="1.1" xmlns="http://www.w3.org/2000/svg" xmlns:xlink="http://www.w3.org/1999/xlink">
    <!-- Generator: Sketch 51.3 (57544) - http://www.bohemiancoding.com/sketch -->
    <title>icon-reactnative</title>
    <desc>Created with Sketch.</desc>
    <defs></defs>
    <g id="icon-reactnative" stroke="none" stroke-width="1" fill="none" fill-rule="evenodd">
        <g id="React-icon" transform="translate(0.000000, 29.000000)" fill="#9E9E9E" fill-rule="nonzero">
            <path d="M511.271545,227.382114 C511.271545,193.560976 468.917073,161.508943 403.980488,141.63252 C418.965854,75.4471545 412.305691,22.7902439 382.95935,5.93170732 C376.195122,1.97723577 368.286179,0.104065041 359.64878,0.104065041 L359.64878,23.3105691 C364.435772,23.3105691 368.286179,24.2471545 371.512195,26.0162602 C385.665041,34.1333333 391.804878,65.0406504 387.017886,104.793496 C385.873171,114.57561 384,124.878049 381.710569,135.388618 C361.313821,130.393496 339.043902,126.543089 315.629268,124.045528 C301.580488,104.793496 287.011382,87.3105691 272.338211,72.0130081 C306.263415,40.4813008 338.107317,23.2065041 359.752846,23.2065041 L359.752846,0 C359.752846,0 359.752846,0 359.752846,0 C331.134959,0 293.671545,20.396748 255.79187,55.7788618 C217.912195,20.604878 180.44878,0.416260163 151.830894,0.416260163 L151.830894,23.6227642 C173.372358,23.6227642 205.320325,40.7934959 239.245528,72.1170732 C224.676423,87.4146341 210.107317,104.793496 196.266667,124.045528 C172.747967,126.543089 150.478049,130.393496 130.081301,135.492683 C127.687805,125.086179 125.918699,114.99187 124.669919,105.313821 C119.778862,65.5609756 125.814634,34.6536585 139.863415,26.4325203 C142.985366,24.5593496 147.043902,23.7268293 151.830894,23.7268293 L151.830894,0.520325203 C151.830894,0.520325203 151.830894,0.520325203 151.830894,0.520325203 C143.089431,0.520325203 135.180488,2.39349593 128.312195,6.34796748 C99.0699187,23.2065041 92.5138211,75.7593496 107.603252,141.736585 C42.8747967,161.717073 0.728455285,193.665041 0.728455285,227.382114 C0.728455285,261.203252 43.0829268,293.255285 108.019512,313.131707 C93.0341463,379.317073 99.6943089,431.973984 129.04065,448.83252 C135.804878,452.786992 143.713821,454.660163 152.455285,454.660163 C181.073171,454.660163 218.536585,434.263415 256.41626,398.881301 C294.295935,434.055285 331.75935,454.243902 360.377236,454.243902 C369.118699,454.243902 377.027642,452.370732 383.895935,448.41626 C413.138211,431.557724 419.694309,379.004878 404.604878,313.027642 C469.125203,293.15122 511.271545,261.099187 511.271545,227.382114 Z M375.778862,157.970732 C371.928455,171.395122 367.141463,185.235772 361.730081,199.076423 C357.463415,190.75122 352.988618,182.426016 348.097561,174.100813 C343.310569,165.77561 338.211382,157.658537 333.112195,149.749593 C347.889431,151.934959 362.146341,154.64065 375.778862,157.970732 Z M328.117073,268.8 C320,282.84878 311.674797,296.169106 303.037398,308.552846 C287.531707,309.905691 271.817886,310.634146 256,310.634146 C240.286179,310.634146 224.572358,309.905691 209.170732,308.656911 C200.533333,296.273171 192.104065,283.056911 183.986992,269.112195 C176.078049,255.479675 168.897561,241.639024 162.341463,227.694309 C168.793496,213.749593 176.078049,199.804878 183.882927,186.172358 C192,172.123577 200.325203,158.803252 208.962602,146.419512 C224.468293,145.066667 240.182114,144.338211 256,144.338211 C271.713821,144.338211 287.427642,145.066667 302.829268,146.315447 C311.466667,158.699187 319.895935,171.915447 328.013008,185.860163 C335.921951,199.492683 343.102439,213.333333 349.658537,227.278049 C343.102439,241.222764 335.921951,255.16748 328.117073,268.8 Z M361.730081,255.271545 C367.349593,269.21626 372.136585,283.160976 376.091057,296.689431 C362.458537,300.019512 348.097561,302.829268 333.21626,305.014634 C338.315447,297.001626 343.414634,288.780488 348.201626,280.35122 C352.988618,272.026016 357.463415,263.596748 361.730081,255.271545 Z M256.20813,366.308943 C246.530081,356.318699 236.852033,345.18374 227.278049,333.00813 C236.643902,333.42439 246.217886,333.736585 255.895935,333.736585 C265.678049,333.736585 275.356098,333.528455 284.826016,333.00813 C275.460163,345.18374 265.782114,356.318699 256.20813,366.308943 Z M178.78374,305.014634 C164.006504,302.829268 149.749593,300.123577 136.117073,296.793496 C139.96748,283.369106 144.754472,269.528455 150.165854,255.687805 C154.43252,264.013008 158.907317,272.338211 163.798374,280.663415 C168.689431,288.988618 173.684553,297.105691 178.78374,305.014634 Z M255.687805,88.4552846 C265.365854,98.4455285 275.043902,109.580488 284.617886,121.756098 C275.252033,121.339837 265.678049,121.027642 256,121.027642 C246.217886,121.027642 236.539837,121.235772 227.069919,121.756098 C236.435772,109.580488 246.113821,98.4455285 255.687805,88.4552846 Z M178.679675,149.749593 C173.580488,157.762602 168.481301,165.98374 163.694309,174.413008 C158.907317,182.738211 154.43252,191.063415 150.165854,199.388618 C144.546341,185.443902 139.75935,171.499187 135.804878,157.970732 C149.437398,154.744715 163.798374,151.934959 178.679675,149.749593 Z M84.500813,280.039024 C47.6617886,264.325203 23.8308943,243.720325 23.8308943,227.382114 C23.8308943,211.043902 47.6617886,190.334959 84.500813,174.725203 C93.4504065,170.874797 103.23252,167.44065 113.326829,164.214634 C119.258537,184.611382 127.063415,205.84065 136.741463,227.590244 C127.16748,249.235772 119.466667,270.360976 113.639024,290.653659 C103.336585,287.427642 93.5544715,283.889431 84.500813,280.039024 Z M140.487805,428.747967 C126.334959,420.630894 120.195122,389.723577 124.982114,349.970732 C126.126829,340.188618 128,329.886179 130.289431,319.37561 C150.686179,324.370732 172.956098,328.221138 196.370732,330.718699 C210.419512,349.970732 224.988618,367.453659 239.661789,382.75122 C205.736585,414.282927 173.892683,431.557724 152.247154,431.557724 C147.564228,431.453659 143.609756,430.517073 140.487805,428.747967 Z M387.330081,349.450407 C392.221138,389.203252 386.185366,420.110569 372.136585,428.331707 C369.014634,430.204878 364.956098,431.037398 360.169106,431.037398 C338.627642,431.037398 306.679675,413.866667 272.754472,382.543089 C287.323577,367.245528 301.892683,349.866667 315.733333,330.614634 C339.252033,328.117073 361.521951,324.266667 381.918699,319.16748 C384.312195,329.678049 386.185366,339.772358 387.330081,349.450407 Z M427.395122,280.039024 C418.445528,283.889431 408.663415,287.323577 398.569106,290.549593 C392.637398,270.152846 384.83252,248.923577 375.154472,227.173984 C384.728455,205.528455 392.429268,184.403252 398.256911,164.110569 C408.55935,167.336585 418.341463,170.874797 427.499187,174.725203 C464.338211,190.439024 488.169106,211.043902 488.169106,227.382114 C488.065041,243.720325 464.234146,264.429268 427.395122,280.039024 Z" id="Shape"></path>
            <circle id="Oval" cx="255.895935" cy="227.382114" r="47.5577236"></circle>
        </g>
    </g>
</svg>