<?xml version="1.0" encoding="UTF-8"?>
<svg width="448px" height="447px" viewBox="0 0 448 447" version="1.1" xmlns="http://www.w3.org/2000/svg" xmlns:xlink="http://www.w3.org/1999/xlink">
    <!-- Generator: Sketch 57.1 (83088) - https://sketch.com -->
    <title>rectangle-shape</title>
    <desc>Created with Sketch.</desc>
    <g id="Page-1" stroke="none" stroke-width="1" fill="none" fill-rule="evenodd">
        <g id="Mask" transform="translate(-151.000000, -241.000000)" fill="#9E9E9E">
            <g id="rectangle-shape" transform="translate(151.500000, 241.000000)">
                <path d="M396.945312,50.0546875 L50.0546875,50.0546875 L50.0546875,396.945312 L396.945312,396.945312 L396.945312,50.0546875 Z M396.945312,0 C410.138087,0 421.778595,5.04422039 431.867188,15.1328125 C441.95578,25.2214046 447,36.8619132 447,50.0546875 L447,396.945312 C447,410.138087 441.95578,421.778595 431.867188,431.867188 C421.778595,441.95578 410.138087,447 396.945312,447 L50.0546875,447 C36.8619132,447 25.2214046,441.95578 15.1328125,431.867188 C5.04422039,421.778595 0,410.138087 0,396.945312 L0,50.0546875 C0,36.8619132 5.04422039,25.2214046 15.1328125,15.1328125 C25.2214046,5.04422039 36.8619132,0 50.0546875,0 L396.945312,0 Z" id="Shape" fill-rule="nonzero"></path>
                <rect id="Rectangle" x="173.5" y="193.5" width="100" height="60"></rect>
                <polygon id="Triangle" points="223.5 68 273.5 168 173.5 168"></polygon>
                <polygon id="Triangle-Copy" transform="translate(223.500000, 329.000000) scale(1, -1) translate(-223.500000, -329.000000) " points="223.5 279 273.5 379 173.5 379"></polygon>
            </g>
        </g>
    </g>
</svg>