<?xml version="1.0" encoding="UTF-8"?>
<svg width="512px" height="512px" viewBox="0 0 512 512" version="1.1" xmlns="http://www.w3.org/2000/svg" xmlns:xlink="http://www.w3.org/1999/xlink">
    <!-- Generator: Sketch 51.3 (57544) - http://www.bohemiancoding.com/sketch -->
    <title>icon-flex</title>
    <desc>Created with Sketch.</desc>
    <defs></defs>
    <g id="icon-flex" stroke="none" stroke-width="1" fill="none" fill-rule="evenodd">
        <g id="Group" transform="translate(32.000000, 49.000000)" fill="#9E9E9E" fill-rule="nonzero">
            <g id="Shape">
                <g transform="translate(0.104497, 0.594027)">
                    <path d="M0.729594321,16.1221091 L0.729594321,158.101372 C0.729594321,166.937928 7.89303832,174.101372 16.7295943,174.101372 L430.759119,174.101372 C439.595675,174.101372 446.759119,166.937928 446.759119,158.101372 L446.759119,16.1221091 C446.759119,7.28555314 439.595675,0.122109134 430.759119,0.122109134 L16.7295943,0.122109134 C7.89303832,0.122109134 0.729594321,7.28555314 0.729594321,16.1221091 Z M0.729594321,254.722241 L0.729594321,396.701504 C0.729594321,405.53806 7.89303832,412.701504 16.7295943,412.701504 L430.759119,412.701504 C439.595675,412.701504 446.759119,405.53806 446.759119,396.701504 L446.759119,254.722241 C446.759119,245.885685 439.595675,238.722241 430.759119,238.722241 L16.7295943,238.722241 C7.89303832,238.722241 0.729594321,245.885685 0.729594321,254.722241 Z"></path>
                </g>
            </g>
        </g>
    </g>
</svg>